<svg width="24" height="24" viewBox="0 0 24 24" fill="none" xmlns="http://www.w3.org/2000/svg">
<path d="M15.39 4.39C15.5157 4.51583 15.6727 4.60585 15.8448 4.6508C16.0169 4.69574 16.1978 4.69397 16.369 4.64567C16.5402 4.59738 16.6954 4.5043 16.8186 4.37604C16.9418 4.24778 17.0286 4.08897 17.07 3.916C17.1738 3.48389 17.3909 3.08727 17.699 2.76697C18.007 2.44668 18.3949 2.21428 18.8226 2.09372C19.2503 1.97316 19.7025 1.96879 20.1324 2.08107C20.5624 2.19334 20.9547 2.4182 21.2689 2.73249C21.5831 3.04678 21.8078 3.43913 21.9199 3.86915C22.0321 4.29916 22.0275 4.7513 21.9068 5.17899C21.7861 5.60668 21.5536 5.99446 21.2332 6.30241C20.9128 6.61036 20.5161 6.82734 20.084 6.931C19.911 6.97239 19.7522 7.05918 19.6239 7.1824C19.4957 7.30562 19.4026 7.46081 19.3543 7.63199C19.306 7.80317 19.3042 7.98413 19.3492 8.15622C19.3941 8.32831 19.4842 8.48529 19.61 8.611L21.293 10.293C21.5172 10.5172 21.695 10.7833 21.8163 11.0762C21.9376 11.3691 22.0001 11.683 22.0001 12C22.0001 12.317 21.9376 12.6309 21.8163 12.9238C21.695 13.2167 21.5172 13.4828 21.293 13.707L19.61 15.39C19.4843 15.5158 19.3273 15.6059 19.1552 15.6508C18.9831 15.6957 18.8022 15.694 18.631 15.6457C18.4598 15.5974 18.3046 15.5043 18.1814 15.376C18.0582 15.2478 17.9714 15.089 17.93 14.916C17.8262 14.4839 17.6091 14.0873 17.301 13.767C16.993 13.4467 16.6051 13.2143 16.1774 13.0937C15.7496 12.9732 15.2975 12.9688 14.8675 13.0811C14.4375 13.1933 14.0453 13.4182 13.7311 13.7325C13.4169 14.0468 13.1922 14.4391 13.08 14.8691C12.9679 15.2992 12.9724 15.7513 13.0931 16.179C13.2138 16.6067 13.4464 16.9945 13.7668 17.3024C14.0872 17.6104 14.4838 17.8273 14.916 17.931C15.089 17.9724 15.2478 18.0592 15.376 18.1824C15.5043 18.3056 15.5974 18.4608 15.6457 18.632C15.694 18.8032 15.6957 18.9841 15.6508 19.1562C15.6058 19.3283 15.5158 19.4853 15.39 19.611L13.707 21.293C13.4828 21.5172 13.2167 21.695 12.9238 21.8163C12.6309 21.9376 12.317 22.0001 12 22.0001C11.683 22.0001 11.369 21.9376 11.0762 21.8163C10.7833 21.695 10.5171 21.5172 10.293 21.293L8.60999 19.61C8.48428 19.4842 8.32729 19.3941 8.15521 19.3492C7.98312 19.3043 7.80216 19.306 7.63098 19.3543C7.4598 19.4026 7.3046 19.4957 7.18138 19.624C7.05816 19.7522 6.97138 19.911 6.92999 20.084C6.82618 20.5161 6.60907 20.9127 6.30102 21.233C5.99297 21.5533 5.6051 21.7857 5.17737 21.9063C4.74964 22.0268 4.29751 22.0312 3.86753 21.9189C3.43755 21.8067 3.04527 21.5818 2.73109 21.2675C2.4169 20.9532 2.19217 20.5609 2.08004 20.1308C1.96791 19.7008 1.97242 19.2487 2.09313 18.821C2.21383 18.3933 2.44635 18.0055 2.76675 17.6976C3.08715 17.3896 3.48385 17.1727 3.91599 17.069C4.08896 17.0276 4.24777 16.9408 4.37603 16.8176C4.50429 16.6944 4.59737 16.5392 4.64566 16.368C4.69396 16.1968 4.69573 16.0159 4.65078 15.8438C4.60584 15.6717 4.51581 15.5147 4.38999 15.389L2.70699 13.707C2.48281 13.4828 2.30499 13.2167 2.18366 12.9238C2.06234 12.6309 1.9999 12.317 1.9999 12C1.9999 11.683 2.06234 11.3691 2.18366 11.0762C2.30499 10.7833 2.48281 10.5172 2.70699 10.293L4.38999 8.61C4.51569 8.48417 4.67268 8.39414 4.84476 8.3492C5.01685 8.30426 5.19781 8.30602 5.36899 8.35432C5.54017 8.40262 5.69537 8.49569 5.81859 8.62396C5.94181 8.75222 6.02859 8.91102 6.06999 9.084C6.17379 9.5161 6.3909 9.91272 6.69895 10.233C7.00701 10.5533 7.39487 10.7857 7.8226 10.9063C8.25033 11.0268 8.70246 11.0312 9.13244 10.9189C9.56242 10.8067 9.9547 10.5818 10.2689 10.2675C10.5831 9.95322 10.8078 9.56086 10.9199 9.13085C11.0321 8.70083 11.0275 8.2487 10.9068 7.82101C10.7861 7.39332 10.5536 7.00553 10.2332 6.69758C9.91282 6.38964 9.51612 6.17266 9.08399 6.069C8.91101 6.0276 8.75221 5.94082 8.62394 5.8176C8.49568 5.69438 8.40261 5.53918 8.35431 5.368C8.30601 5.19682 8.30424 5.01586 8.34919 4.84378C8.39413 4.67169 8.48416 4.5147 8.60999 4.389L10.293 2.707C10.5171 2.48282 10.7833 2.305 11.0762 2.18368C11.369 2.06235 11.683 1.99991 12 1.99991C12.317 1.99991 12.6309 2.06235 12.9238 2.18368C13.2167 2.305 13.4828 2.48282 13.707 2.707L15.39 4.39Z" stroke="black" stroke-width="2" stroke-linecap="round" stroke-linejoin="round"/>
</svg>
